<svg width="20" height="20" viewBox="0 0 20 20" fill="none" xmlns="http://www.w3.org/2000/svg">
<mask id="mask0_2_2077" style="mask-type:alpha" maskUnits="userSpaceOnUse" x="0" y="0" width="20" height="20">
<rect width="20" height="20" fill="#D9D9D9"/>
</mask>
<g mask="url(#mask0_2_2077)">
<path d="M14.2278 10.4161H4.58366C4.46505 10.4161 4.36595 10.3763 4.28637 10.2967C4.20678 10.2171 4.16699 10.118 4.16699 9.99939C4.16699 9.88078 4.20678 9.78169 4.28637 9.7021C4.36595 9.62252 4.46505 9.58273 4.58366 9.58273L14.2278 9.58273L11.1157 6.47064C11.0345 6.38939 10.992 6.29377 10.9882 6.18377C10.9845 6.07363 11.027 5.97266 11.1157 5.88085C11.2075 5.78891 11.3066 5.74217 11.413 5.74065C11.5193 5.73898 11.6184 5.78412 11.7103 5.87606L15.3624 9.52814C15.4352 9.60092 15.4862 9.67523 15.5155 9.75106C15.545 9.82689 15.5597 9.90967 15.5597 9.99939C15.5597 10.0891 15.545 10.1719 15.5155 10.2477C15.4862 10.3236 15.4352 10.3979 15.3624 10.4706L11.7103 14.1227C11.6291 14.204 11.5326 14.2465 11.421 14.2502C11.3093 14.254 11.2075 14.2099 11.1157 14.1179C11.027 14.0261 10.9819 13.9279 10.9803 13.8231C10.9787 13.7184 11.0238 13.6201 11.1157 13.5281L14.2278 10.4161Z" fill="#6947BF"/>
</g>
</svg>
